<mxfile host="app.diagrams.net" agent="Mozilla/5.0 (Windows NT 10.0; Win64; x64) AppleWebKit/537.36 (KHTML, like Gecko) Chrome/128.0.0.0 Safari/537.36 Edg/128.0.0.0" version="24.7.12">
  <diagram name="Seite-1" id="YVsHB8WTYbMFEzjw-cUy">
    <mxGraphModel dx="1434" dy="947" grid="1" gridSize="10" guides="1" tooltips="1" connect="1" arrows="1" fold="1" page="1" pageScale="1" pageWidth="1654" pageHeight="1169" math="0" shadow="0">
      <root>
        <mxCell id="0" />
        <mxCell id="1" parent="0" />
        <mxCell id="L24E9OEPDApnfGDhgLYN-9" value="&lt;b&gt;&lt;font style=&quot;font-size: 20px&quot;&gt;ESP32-WiFi&lt;/font&gt;&lt;/b&gt;&lt;br style=&quot;font-size: 14px&quot;&gt;&lt;br style=&quot;font-size: 14px&quot;&gt;ESP32 Controller mit WiFi und Basisfunktionalität." style="html=1;shadow=0;dashed=0;shape=mxgraph.bootstrap.rrect;rSize=5;strokeColor=#0071D5;html=1;whiteSpace=wrap;fillColor=#0085FC;fontColor=#ffffff;verticalAlign=bottom;align=left;spacing=20;spacingBottom=0;fontSize=14;" vertex="1" parent="1">
          <mxGeometry x="100" y="340" width="250" height="180" as="geometry" />
        </mxCell>
        <mxCell id="L24E9OEPDApnfGDhgLYN-10" value="CoreBoard" style="html=1;shadow=0;dashed=0;shape=mxgraph.bootstrap.topButton;rSize=5;perimeter=none;whiteSpace=wrap;fillColor=#0081F4;strokeColor=#0071D5;fontColor=#ffffff;resizeWidth=1;fontSize=18;align=left;spacing=20;" vertex="1" parent="L24E9OEPDApnfGDhgLYN-9">
          <mxGeometry width="250" height="50" relative="1" as="geometry" />
        </mxCell>
        <mxCell id="L24E9OEPDApnfGDhgLYN-11" value="&lt;b&gt;&lt;font style=&quot;font-size: 20px&quot;&gt;Powersupply-2ch&lt;/font&gt;&lt;/b&gt;&lt;br style=&quot;font-size: 14px&quot;&gt;&lt;br style=&quot;font-size: 14px&quot;&gt;24 V Netzteil zur Versorgung vom CoreBoard und 2 Relaisausgänge (230 VAC 5 A)." style="html=1;shadow=0;dashed=0;shape=mxgraph.bootstrap.rrect;rSize=5;strokeColor=#BA2239;html=1;whiteSpace=wrap;fillColor=#DB2843;fontColor=#ffffff;verticalAlign=bottom;align=left;spacing=20;spacingBottom=0;fontSize=14;" vertex="1" parent="1">
          <mxGeometry x="100" y="570" width="250" height="180" as="geometry" />
        </mxCell>
        <mxCell id="L24E9OEPDApnfGDhgLYN-12" value="HighVoltageBoard" style="html=1;shadow=0;dashed=0;shape=mxgraph.bootstrap.topButton;rSize=5;perimeter=none;whiteSpace=wrap;fillColor=#D42741;strokeColor=#BA2239;fontColor=#ffffff;resizeWidth=1;fontSize=18;align=left;spacing=20;" vertex="1" parent="L24E9OEPDApnfGDhgLYN-11">
          <mxGeometry width="250" height="50" relative="1" as="geometry" />
        </mxCell>
        <mxCell id="L24E9OEPDApnfGDhgLYN-13" value="&lt;b&gt;&lt;font style=&quot;font-size: 20px&quot;&gt;WaterAnalyticRiser&lt;/font&gt;&lt;/b&gt;&lt;br style=&quot;font-size: 14px&quot;&gt;&lt;br style=&quot;font-size: 14px&quot;&gt;2 isolierte EZO Sockel mit BNC Anschluss und 1-Wire Schnittstelle. Panelmontage möglich, über Verschraubung der Stecker." style="html=1;shadow=0;dashed=0;shape=mxgraph.bootstrap.rrect;rSize=5;strokeColor=#2B8D40;html=1;whiteSpace=wrap;fillColor=#33A64C;fontColor=#ffffff;verticalAlign=bottom;align=left;spacing=20;spacingBottom=0;fontSize=14;" vertex="1" parent="1">
          <mxGeometry x="690" y="560" width="250" height="180" as="geometry" />
        </mxCell>
        <mxCell id="L24E9OEPDApnfGDhgLYN-14" value="RiserBoard" style="html=1;shadow=0;dashed=0;shape=mxgraph.bootstrap.topButton;rSize=5;perimeter=none;whiteSpace=wrap;fillColor=#31A14A;strokeColor=#2B8D40;fontColor=#ffffff;resizeWidth=1;fontSize=18;align=left;spacing=20;" vertex="1" parent="L24E9OEPDApnfGDhgLYN-13">
          <mxGeometry width="250" height="50" relative="1" as="geometry" />
        </mxCell>
        <mxCell id="L24E9OEPDApnfGDhgLYN-15" value="&lt;b&gt;&lt;font style=&quot;font-size: 20px&quot;&gt;Secondary card title&lt;/font&gt;&lt;/b&gt;&lt;br style=&quot;font-size: 14px&quot;&gt;&lt;br style=&quot;font-size: 14px&quot;&gt;Some quick example text to build on the card title and make up the bulk of the card&#39;s content." style="html=1;shadow=0;dashed=0;shape=mxgraph.bootstrap.rrect;rSize=5;strokeColor=#5B646A;html=1;whiteSpace=wrap;fillColor=#6C767D;fontColor=#ffffff;verticalAlign=bottom;align=left;spacing=20;spacingBottom=0;fontSize=14;" vertex="1" parent="1">
          <mxGeometry x="1030" y="300" width="250" height="180" as="geometry" />
        </mxCell>
        <mxCell id="L24E9OEPDApnfGDhgLYN-16" value="Header" style="html=1;shadow=0;dashed=0;shape=mxgraph.bootstrap.topButton;rSize=5;perimeter=none;whiteSpace=wrap;fillColor=#697279;strokeColor=#5B646A;fontColor=#ffffff;resizeWidth=1;fontSize=18;align=left;spacing=20;" vertex="1" parent="L24E9OEPDApnfGDhgLYN-15">
          <mxGeometry width="250" height="50" relative="1" as="geometry" />
        </mxCell>
        <mxCell id="L24E9OEPDApnfGDhgLYN-17" value="&lt;b&gt;&lt;font style=&quot;font-size: 20px&quot;&gt;ESP32&lt;/font&gt;&lt;/b&gt;&lt;br style=&quot;font-size: 14px&quot;&gt;&lt;br style=&quot;font-size: 14px&quot;&gt;ESP32 Controller mit Basisfunktionalität." style="html=1;shadow=0;dashed=0;shape=mxgraph.bootstrap.rrect;rSize=5;strokeColor=#0071D5;html=1;whiteSpace=wrap;fillColor=#0085FC;fontColor=#ffffff;verticalAlign=bottom;align=left;spacing=20;spacingBottom=0;fontSize=14;" vertex="1" parent="1">
          <mxGeometry x="380" y="340" width="250" height="180" as="geometry" />
        </mxCell>
        <mxCell id="L24E9OEPDApnfGDhgLYN-18" value="CoreBoard" style="html=1;shadow=0;dashed=0;shape=mxgraph.bootstrap.topButton;rSize=5;perimeter=none;whiteSpace=wrap;fillColor=#0081F4;strokeColor=#0071D5;fontColor=#ffffff;resizeWidth=1;fontSize=18;align=left;spacing=20;" vertex="1" parent="L24E9OEPDApnfGDhgLYN-17">
          <mxGeometry width="250" height="50" relative="1" as="geometry" />
        </mxCell>
        <mxCell id="L24E9OEPDApnfGDhgLYN-21" value="&lt;b&gt;&lt;font style=&quot;font-size: 20px&quot;&gt;Basisfunktionalität&lt;/font&gt;&lt;/b&gt;&lt;br style=&quot;font-size: 14px&quot;&gt;&lt;br style=&quot;font-size: 14px&quot;&gt;&lt;ul&gt;&lt;li&gt;2 x DI iso.&lt;/li&gt;&lt;li&gt;1 x User switch&lt;/li&gt;&lt;li&gt;1 x User led&lt;/li&gt;&lt;li&gt;Power Led&lt;/li&gt;&lt;li&gt;Powermanagement&lt;/li&gt;&lt;/ul&gt;" style="html=1;shadow=0;dashed=0;shape=mxgraph.bootstrap.rrect;rSize=5;strokeColor=#0085FC;html=1;whiteSpace=wrap;fillColor=#ffffff;fontColor=#0085FC;verticalAlign=bottom;align=left;spacing=20;spacingBottom=0;fontSize=14;" vertex="1" parent="1">
          <mxGeometry x="1090" y="580" width="250" height="250" as="geometry" />
        </mxCell>
        <mxCell id="L24E9OEPDApnfGDhgLYN-22" value="CoreBoard" style="html=1;shadow=0;dashed=0;shape=mxgraph.bootstrap.topButton;rSize=5;perimeter=none;whiteSpace=wrap;fillColor=#F7F7F7;strokeColor=#0085FC;fontColor=#212529;resizeWidth=1;fontSize=18;align=left;spacing=20;" vertex="1" parent="L24E9OEPDApnfGDhgLYN-21">
          <mxGeometry width="250" height="50" relative="1" as="geometry" />
        </mxCell>
      </root>
    </mxGraphModel>
  </diagram>
</mxfile>
